<?xml version="1.0" encoding="UTF-8" ?>
<!DOCTYPE svg PUBLIC "-//W3C//DTD SVG 1.1//EN" "http://www.w3.org/Graphics/SVG/1.1/DTD/svg11.dtd">
<svg width="160pt" height="160pt" viewBox="0 0 160 160" version="1.1" xmlns="http://www.w3.org/2000/svg">
<path fill="#ffffff" d=" M 0.00 0.00 L 160.00 0.00 L 160.00 160.00 L 0.00 160.00 L 0.00 0.00 Z" />
<path fill="#ff9d00" d=" M 74.18 5.41 C 76.95 5.13 79.80 5.02 82.56 5.50 C 84.69 6.45 85.41 8.82 85.25 10.99 C 85.24 30.65 85.24 50.30 85.25 69.96 C 80.51 69.96 75.77 69.95 71.03 69.97 C 71.05 50.30 71.04 30.63 71.03 10.95 C 70.85 8.74 71.72 5.92 74.18 5.41 Z" />
<path fill="#ff9d00" d=" M 54.28 58.20 C 55.34 55.57 58.54 55.35 60.99 55.41 C 63.41 55.40 66.65 55.57 67.72 58.19 C 68.28 62.09 67.82 66.05 67.97 69.98 C 63.32 69.95 58.68 69.95 54.03 69.98 C 54.17 66.05 53.72 62.10 54.28 58.20 Z" />
<path fill="#ff9d00" d=" M 88.57 58.38 C 90.04 54.64 94.81 55.42 98.01 55.56 C 100.35 55.55 102.42 57.57 102.23 59.95 C 102.23 72.64 102.33 85.34 102.18 98.03 C 102.20 100.65 99.35 102.03 97.04 101.79 C 94.12 101.74 90.21 102.47 88.61 99.29 C 87.86 96.06 88.38 92.69 88.25 89.41 C 91.39 89.46 94.90 88.18 95.91 84.91 C 96.82 81.41 96.83 77.59 95.92 74.10 C 94.81 70.92 91.26 69.88 88.22 69.79 C 88.43 65.99 87.86 62.12 88.57 58.38 Z" />
<path fill="#ff9d00" d=" M 107.34 56.41 C 109.61 55.02 112.47 55.49 115.02 55.50 C 117.47 55.44 119.76 57.45 119.69 59.96 C 119.84 72.00 119.68 84.04 119.76 96.08 C 119.95 98.26 119.00 100.93 116.70 101.56 C 113.99 101.90 111.20 101.94 108.49 101.55 C 106.24 100.75 105.30 98.28 105.48 96.06 C 105.48 84.69 105.52 73.31 105.47 61.94 C 105.46 59.99 105.52 57.61 107.34 56.41 Z" />
<path fill="#ff9d00" d=" M 38.62 75.02 C 38.94 73.04 41.35 72.68 42.99 72.74 C 58.34 72.79 73.70 72.71 89.05 72.78 C 91.90 72.42 94.10 75.22 93.77 77.92 C 94.05 81.04 93.99 86.11 89.83 86.44 C 77.97 86.62 66.11 86.45 54.25 86.51 C 54.25 87.17 54.25 88.48 54.24 89.14 C 64.16 89.35 74.32 93.61 80.13 101.88 C 83.95 106.85 85.49 113.10 85.84 119.26 C 86.52 119.26 87.89 119.25 88.57 119.25 C 88.34 111.15 85.58 102.98 79.88 97.09 C 76.93 93.75 73.01 91.59 69.25 89.33 C 74.58 89.18 79.91 89.28 85.24 89.25 C 85.58 94.27 83.54 101.33 89.19 104.12 C 93.97 105.08 99.97 105.90 103.96 102.35 C 108.26 106.06 114.71 105.15 119.79 103.78 C 119.47 110.50 120.70 117.58 117.83 123.93 C 114.81 131.57 107.71 136.93 99.87 138.91 C 99.82 139.68 99.71 141.21 99.65 141.97 C 101.71 141.47 103.74 140.88 105.76 140.26 C 105.73 145.68 105.76 151.09 105.74 156.51 C 93.19 156.54 80.64 156.45 68.09 156.56 C 67.97 151.19 68.09 145.82 68.01 140.45 C 70.22 141.15 72.47 141.75 74.75 142.17 C 74.75 141.39 74.76 139.85 74.76 139.08 C 66.56 137.61 59.18 132.15 55.72 124.54 C 50.38 111.88 45.11 99.19 39.66 86.57 C 37.91 82.98 38.41 78.87 38.62 75.02 Z" />
</svg>
