<?xml version="1.0" encoding="UTF-8" ?>
<!DOCTYPE svg PUBLIC "-//W3C//DTD SVG 1.1//EN" "http://www.w3.org/Graphics/SVG/1.1/DTD/svg11.dtd">
<svg width="160pt" height="160pt" viewBox="0 0 160 160" version="1.1" xmlns="http://www.w3.org/2000/svg">
<path fill="#ffffff" d=" M 0.00 0.00 L 160.00 0.00 L 160.00 160.00 L 0.00 160.00 L 0.00 0.00 Z" />
<path fill="#ffba24" d=" M 38.37 51.55 C 50.56 51.27 62.77 51.52 74.97 51.43 C 77.78 51.08 80.62 53.13 80.53 56.10 C 80.83 59.47 81.11 64.95 76.58 65.46 C 64.39 65.72 52.17 65.48 39.98 65.57 C 37.29 65.91 34.51 63.92 34.73 61.04 C 34.62 57.70 33.80 52.17 38.37 51.55 Z" />
<path fill="#ffba24" d=" M 82.68 51.72 C 88.56 51.78 94.78 51.12 100.28 53.69 C 106.69 56.41 111.50 62.01 114.02 68.42 C 114.82 68.43 116.41 68.45 117.21 68.46 C 116.26 66.06 115.19 63.71 113.98 61.43 C 119.50 61.45 125.02 61.41 130.54 61.46 C 130.60 74.29 130.54 87.13 130.57 99.96 C 126.21 99.96 121.85 99.96 117.49 99.96 C 117.81 98.11 118.10 96.26 118.39 94.41 C 117.35 94.36 116.32 94.32 115.28 94.28 C 114.95 102.62 110.07 110.80 102.28 114.17 C 98.62 116.11 94.40 115.96 90.42 116.64 C 86.21 117.49 83.27 121.73 83.30 125.93 C 83.16 133.61 83.41 141.30 83.23 148.98 C 83.33 151.06 82.02 153.20 79.90 153.63 C 75.07 154.50 69.92 150.80 69.34 145.88 C 68.98 141.25 69.33 136.60 69.19 131.97 C 69.24 128.77 68.85 125.34 70.44 122.42 C 72.11 119.13 74.30 115.77 73.71 111.89 C 73.52 106.45 69.16 102.39 68.33 97.12 C 67.18 89.94 70.16 82.35 75.70 77.68 C 79.48 74.12 84.65 72.55 89.72 72.04 C 89.71 71.31 89.69 69.86 89.68 69.13 C 86.73 69.37 83.81 69.91 80.96 70.70 C 80.62 70.03 79.95 68.68 79.61 68.00 C 84.99 64.43 83.67 57.13 82.68 51.72 Z" />
<path fill="#ffba24" d=" M 32.63 71.42 C 33.24 69.13 35.81 68.25 37.96 68.42 C 49.93 68.50 61.90 68.33 73.87 68.50 C 76.07 68.40 77.39 70.23 78.35 71.93 C 73.95 74.49 70.33 78.18 67.77 82.57 C 57.51 82.52 47.24 82.63 36.98 82.53 C 34.87 82.64 32.66 81.12 32.52 78.92 C 32.32 76.43 32.24 73.89 32.63 71.42 Z" />
<path fill="#ffba24" d=" M 33.44 85.57 C 44.42 85.22 55.44 85.56 66.44 85.42 C 65.18 90.02 64.44 94.86 65.67 99.55 C 55.45 99.54 45.22 99.63 35.01 99.53 C 32.45 99.69 29.94 97.77 30.07 95.07 C 29.95 91.79 29.16 86.53 33.44 85.57 Z" />
<path fill="#ffba24" d=" M 31.36 102.54 C 43.13 102.27 54.92 102.53 66.70 102.43 C 69.09 106.72 72.12 111.55 70.09 116.61 C 57.44 116.47 44.78 116.65 32.12 116.53 C 29.69 116.60 27.61 114.48 27.76 112.03 C 27.56 108.71 26.96 103.28 31.36 102.54 Z" />
</svg>
